<svg width="31" height="31" viewBox="0 0 31 31" fill="none" xmlns="http://www.w3.org/2000/svg">
<path d="M10.6562 26.1562C11.1913 26.1562 11.625 25.7225 11.625 25.1875C11.625 24.6525 11.1913 24.2188 10.6562 24.2188C10.1212 24.2188 9.6875 24.6525 9.6875 25.1875C9.6875 25.7225 10.1212 26.1562 10.6562 26.1562Z" fill="black" stroke="black" stroke-width="2" stroke-linecap="round" stroke-linejoin="round"/>
<path d="M24.2188 26.1562C24.7538 26.1562 25.1875 25.7225 25.1875 25.1875C25.1875 24.6525 24.7538 24.2188 24.2188 24.2188C23.6837 24.2188 23.25 24.6525 23.25 25.1875C23.25 25.7225 23.6837 26.1562 24.2188 26.1562Z" fill="black" stroke="black" stroke-width="2" stroke-linecap="round" stroke-linejoin="round"/>
<path d="M2.90625 4.84375H6.78125L9.6875 21.3125H25.1875" stroke="black" stroke-width="3" stroke-linecap="square"/>
<path d="M9.6875 17.4375H25.5L27.0094 7.75H7.75" stroke="black" stroke-width="3" stroke-linecap="square"/>
</svg>
