<?xml version="1.0" encoding="utf-8"?>
<!-- Generator: Adobe Illustrator 25.2.0, SVG Export Plug-In . SVG Version: 6.00 Build 0)  -->
<svg version="1.1" id="Layer_1" xmlns="http://www.w3.org/2000/svg" xmlns:xlink="http://www.w3.org/1999/xlink" x="0px" y="0px"
	 viewBox="0 0 137.81 66.38" style="enable-background:new 0 0 137.81 66.38;" xml:space="preserve">
<style type="text/css">
	.st0{fill:none;}
	.st1{enable-background:new    ;}
	.st2{clip-path:url(#SVGID_2_);}
	.st3{fill:none;stroke:#000000;stroke-width:2;stroke-miterlimit:10;}
	.st4{fill:none;stroke:#ED1C24;stroke-width:0.75;stroke-miterlimit:10;}
	.st5{clip-path:url(#SVGID_4_);}
	.st6{clip-path:url(#SVGID_6_);}
	.st7{clip-path:url(#SVGID_8_);}
</style>
<polygon class="st0" points="137.06,22.89 104.48,3.21 85.4,10.28 72.05,2.48 2.74,25.01 45.38,65.88 "/>
<polygon points="2.74,25.01 1.11,23.38 2.9,22.89 4.37,23.38 "/>
<polygon points="137.97,22.01 135.66,23.09 134.72,22.19 135.8,20.85 "/>
<g>
	<g class="st1">
		<defs>
			<polygon id="SVGID_7_" class="st1" points="44.43,66.67 3.9,27.4 88.63,0.31 133.29,24.68 			"/>
		</defs>
		<clipPath id="SVGID_2_">
			<use xlink:href="#SVGID_7_"  style="overflow:visible;"/>
		</clipPath>
		<g class="st2">
			<path d="M16.74,34.07l-2.76-2.59l5.04-1.71c0.31-0.11,0.61-0.2,0.89-0.28c0.28-0.08,0.56-0.14,0.81-0.19
				c0.26-0.05,0.5-0.09,0.74-0.11c0.23-0.02,0.46-0.04,0.67-0.03c0.21,0,0.41,0.02,0.59,0.05c0.18,0.03,0.36,0.06,0.52,0.11
				c0.16,0.05,0.31,0.11,0.44,0.18c0.14,0.07,0.26,0.16,0.37,0.26c0.12,0.1,0.21,0.21,0.27,0.31c0.07,0.1,0.11,0.21,0.12,0.31
				c0.01,0.11,0,0.21-0.04,0.32c-0.04,0.11-0.1,0.21-0.2,0.32c-0.09,0.11-0.2,0.21-0.34,0.31c-0.13,0.1-0.29,0.2-0.47,0.31
				c-0.18,0.1-0.38,0.2-0.61,0.3c-0.22,0.1-0.47,0.19-0.74,0.29L16.74,34.07 M12.53,30.12l-2.57-2.41l4.53-1.48
				c0.25-0.08,0.5-0.15,0.73-0.21c0.24-0.06,0.46-0.11,0.68-0.15c0.22-0.04,0.43-0.07,0.63-0.08c0.2-0.02,0.4-0.02,0.58-0.02
				c0.19,0.01,0.36,0.02,0.53,0.05c0.16,0.03,0.32,0.06,0.46,0.11c0.14,0.05,0.28,0.11,0.4,0.17c0.12,0.07,0.23,0.15,0.34,0.24
				c0.12,0.1,0.2,0.2,0.27,0.31c0.06,0.1,0.1,0.2,0.11,0.3c0.01,0.1,0,0.2-0.05,0.3c-0.04,0.1-0.11,0.2-0.21,0.3
				c-0.1,0.1-0.21,0.2-0.35,0.3c-0.14,0.1-0.29,0.19-0.46,0.28c-0.17,0.09-0.37,0.18-0.58,0.27c-0.21,0.09-0.45,0.18-0.7,0.26
				L12.53,30.12 M13.38,24.76L5.3,27.35l9.77,9.39l8.56-3.04c0.25-0.09,0.49-0.18,0.72-0.27c0.23-0.09,0.45-0.18,0.66-0.28
				c0.21-0.09,0.41-0.19,0.6-0.29c0.19-0.1,0.37-0.2,0.55-0.3c0.17-0.1,0.33-0.2,0.48-0.3c0.15-0.1,0.29-0.2,0.41-0.3
				c0.13-0.1,0.24-0.2,0.34-0.31c0.1-0.1,0.2-0.21,0.28-0.31c0.08-0.11,0.15-0.21,0.21-0.31c0.06-0.1,0.1-0.21,0.13-0.31
				c0.03-0.1,0.05-0.21,0.06-0.31c0.01-0.1,0.01-0.21-0.01-0.31c-0.01-0.1-0.04-0.21-0.08-0.31c-0.04-0.1-0.09-0.21-0.16-0.31
				c-0.07-0.1-0.14-0.2-0.23-0.3c-0.09-0.1-0.19-0.2-0.31-0.3c-0.09-0.08-0.18-0.15-0.27-0.22c-0.09-0.07-0.19-0.13-0.29-0.19
				c-0.1-0.06-0.2-0.12-0.3-0.17c-0.1-0.05-0.21-0.1-0.32-0.15c-0.11-0.04-0.22-0.08-0.33-0.12c-0.11-0.04-0.23-0.07-0.34-0.1
				c-0.12-0.03-0.23-0.06-0.35-0.08c-0.12-0.02-0.24-0.04-0.37-0.06c-0.12-0.02-0.25-0.03-0.38-0.04c-0.13-0.01-0.26-0.02-0.39-0.02
				c-0.13-0.01-0.27-0.01-0.41-0.01c-0.14,0-0.28,0-0.42,0.01c-0.14,0.01-0.28,0.01-0.43,0.02c-0.14,0.01-0.29,0.02-0.44,0.03
				c-0.15,0.01-0.3,0.03-0.45,0.04c-0.15,0.02-0.3,0.03-0.46,0.05c0.06-0.05,0.11-0.1,0.16-0.15c0.05-0.05,0.1-0.1,0.15-0.15
				c0.05-0.05,0.1-0.1,0.14-0.16c0.05-0.05,0.09-0.11,0.13-0.16c0.04-0.06,0.08-0.11,0.12-0.17c0.03-0.06,0.07-0.11,0.09-0.17
				c0.03-0.06,0.05-0.11,0.07-0.17c0.02-0.06,0.03-0.11,0.04-0.17c0.01-0.06,0.02-0.11,0.02-0.17c0-0.06,0-0.12-0.01-0.18
				c-0.01-0.06-0.02-0.12-0.03-0.18c-0.02-0.06-0.04-0.12-0.06-0.19c-0.03-0.06-0.06-0.13-0.09-0.19c-0.04-0.06-0.08-0.13-0.13-0.19
				c-0.05-0.06-0.11-0.13-0.17-0.19c-0.06-0.06-0.13-0.13-0.21-0.2c-0.19-0.17-0.41-0.32-0.65-0.45c-0.24-0.13-0.49-0.24-0.77-0.33
				c-0.28-0.09-0.58-0.16-0.9-0.22c-0.32-0.05-0.66-0.09-1.03-0.1c-0.37-0.01-0.74-0.01-1.13,0.01c-0.38,0.02-0.78,0.07-1.18,0.13
				c-0.4,0.06-0.82,0.15-1.24,0.25C14.26,24.49,13.82,24.62,13.38,24.76"/>
			<path d="M36.57,27.67c-0.17,0.06-0.34,0.11-0.51,0.16c-0.17,0.05-0.34,0.08-0.51,0.11c-0.17,0.03-0.34,0.05-0.51,0.07
				c-0.17,0.01-0.34,0.02-0.51,0.02c-0.17,0-0.33-0.01-0.48-0.03c-0.15-0.02-0.29-0.05-0.43-0.09c-0.13-0.04-0.26-0.09-0.37-0.15
				c-0.11-0.06-0.22-0.13-0.31-0.21l-0.03-0.02c-0.1-0.09-0.18-0.17-0.24-0.26c-0.06-0.09-0.1-0.17-0.11-0.26
				c-0.02-0.09-0.01-0.18,0.02-0.26c0.03-0.09,0.08-0.18,0.15-0.27c0.07-0.09,0.17-0.18,0.28-0.26c0.11-0.09,0.24-0.17,0.39-0.25
				c0.15-0.08,0.32-0.16,0.5-0.24c0.19-0.08,0.39-0.16,0.62-0.24c0.14-0.05,0.28-0.09,0.42-0.14c0.14-0.04,0.28-0.08,0.41-0.12
				c0.14-0.04,0.28-0.07,0.41-0.11c0.14-0.03,0.27-0.07,0.41-0.1c0.14-0.03,0.27-0.06,0.4-0.08c0.13-0.03,0.26-0.05,0.38-0.07
				c0.12-0.02,0.25-0.04,0.37-0.06c0.12-0.02,0.24-0.03,0.35-0.05l0.5,0.4c0.06,0.05,0.12,0.1,0.17,0.15
				c0.05,0.05,0.09,0.1,0.13,0.16c0.04,0.05,0.07,0.11,0.09,0.16c0.02,0.05,0.04,0.11,0.05,0.17c0.01,0.06,0.02,0.11,0.02,0.17
				c0,0.06-0.01,0.11-0.02,0.17c-0.01,0.06-0.03,0.11-0.06,0.17c-0.03,0.06-0.06,0.11-0.09,0.17c-0.04,0.06-0.08,0.11-0.13,0.17
				c-0.05,0.05-0.1,0.11-0.16,0.16c-0.06,0.05-0.12,0.11-0.19,0.16c-0.07,0.05-0.14,0.11-0.23,0.16c-0.08,0.05-0.16,0.1-0.25,0.15
				c-0.09,0.05-0.18,0.1-0.28,0.14c-0.1,0.05-0.2,0.09-0.31,0.14C36.81,27.58,36.69,27.62,36.57,27.67 M30.39,21.95
				c-0.25,0.08-0.5,0.17-0.72,0.25c-0.23,0.08-0.45,0.17-0.65,0.25c-0.2,0.08-0.4,0.17-0.57,0.25c-0.18,0.08-0.34,0.17-0.5,0.25
				c-0.15,0.08-0.31,0.17-0.45,0.26c-0.15,0.09-0.29,0.18-0.43,0.27c-0.14,0.09-0.28,0.18-0.41,0.28c-0.14,0.09-0.27,0.19-0.4,0.29
				l2.2,0.91c0.11-0.08,0.22-0.15,0.33-0.23c0.11-0.08,0.22-0.15,0.33-0.22c0.11-0.07,0.23-0.14,0.34-0.21
				c0.11-0.07,0.23-0.13,0.35-0.2c0.12-0.06,0.24-0.13,0.38-0.19c0.13-0.06,0.27-0.13,0.42-0.19c0.15-0.06,0.3-0.12,0.46-0.18
				c0.16-0.06,0.33-0.12,0.51-0.18c0.25-0.08,0.49-0.15,0.72-0.21c0.23-0.06,0.46-0.1,0.69-0.14c0.22-0.03,0.44-0.06,0.65-0.07
				c0.21-0.01,0.42-0.01,0.62,0.01c0.2,0.01,0.4,0.04,0.58,0.07c0.19,0.04,0.36,0.09,0.53,0.15c0.17,0.06,0.33,0.13,0.48,0.22
				c0.15,0.08,0.3,0.18,0.43,0.29l0.2,0.16c-0.15,0.02-0.29,0.04-0.44,0.07c-0.15,0.02-0.29,0.05-0.44,0.07
				c-0.15,0.03-0.29,0.05-0.44,0.08c-0.15,0.03-0.29,0.06-0.44,0.09c-0.15,0.03-0.3,0.07-0.46,0.11c-0.16,0.04-0.32,0.08-0.49,0.13
				c-0.17,0.05-0.34,0.1-0.52,0.16c-0.18,0.06-0.36,0.12-0.55,0.18c-0.18,0.06-0.35,0.12-0.52,0.19c-0.17,0.06-0.33,0.13-0.49,0.2
				c-0.16,0.07-0.31,0.14-0.45,0.21c-0.14,0.07-0.28,0.14-0.42,0.22c-0.13,0.07-0.25,0.15-0.37,0.23c-0.11,0.08-0.22,0.15-0.32,0.23
				c-0.1,0.08-0.19,0.16-0.27,0.24c-0.08,0.08-0.15,0.16-0.22,0.24c-0.06,0.08-0.12,0.17-0.16,0.25c-0.04,0.08-0.08,0.17-0.1,0.26
				c-0.02,0.09-0.04,0.17-0.04,0.26c-0.01,0.09,0,0.18,0.01,0.27c0.02,0.09,0.04,0.18,0.08,0.27c0.04,0.09,0.09,0.18,0.15,0.27
				c0.06,0.09,0.13,0.18,0.22,0.27c0.08,0.09,0.18,0.18,0.29,0.27l0.03,0.03c0.1,0.08,0.2,0.16,0.31,0.24
				c0.11,0.07,0.23,0.14,0.35,0.21c0.12,0.06,0.25,0.12,0.38,0.18c0.13,0.05,0.27,0.1,0.41,0.15c0.14,0.04,0.28,0.08,0.43,0.12
				c0.14,0.03,0.29,0.06,0.44,0.09c0.15,0.03,0.3,0.05,0.45,0.06c0.15,0.02,0.31,0.03,0.47,0.03c0.16,0.01,0.31,0.01,0.47,0.01
				c0.16,0,0.32-0.01,0.48-0.02c0.16-0.01,0.32-0.02,0.48-0.04c0.16-0.02,0.32-0.04,0.49-0.07c0.17-0.03,0.33-0.06,0.49-0.09
				c0.16-0.03,0.32-0.07,0.48-0.11c0.16-0.04,0.31-0.08,0.47-0.13c0.16-0.05,0.31-0.1,0.46-0.15c0.24-0.09,0.46-0.17,0.67-0.26
				c0.21-0.09,0.4-0.18,0.57-0.28c0.17-0.09,0.33-0.19,0.47-0.29c0.14-0.1,0.27-0.2,0.38-0.31c0.11-0.11,0.21-0.21,0.29-0.32
				c0.09-0.1,0.16-0.21,0.23-0.31c0.06-0.1,0.12-0.21,0.16-0.31c0.04-0.1,0.08-0.21,0.1-0.31l1.01,0.81l2.79-0.99l-4.81-3.77
				c-0.26-0.21-0.54-0.39-0.83-0.56c-0.29-0.16-0.59-0.31-0.9-0.43c-0.31-0.12-0.63-0.23-0.97-0.31c-0.33-0.08-0.68-0.14-1.04-0.18
				c-0.36-0.04-0.73-0.06-1.12-0.05c-0.38,0.01-0.78,0.04-1.19,0.09c-0.41,0.05-0.83,0.13-1.26,0.23
				C31.3,21.67,30.85,21.8,30.39,21.95"/>
			<path d="M45.47,16.97c-0.23,0.07-0.43,0.15-0.62,0.24c-0.19,0.08-0.35,0.17-0.5,0.26c-0.15,0.09-0.28,0.19-0.39,0.29
				c-0.11,0.1-0.2,0.21-0.27,0.32c-0.08,0.12-0.14,0.24-0.19,0.37c-0.04,0.13-0.07,0.26-0.08,0.39c-0.01,0.13,0,0.27,0.02,0.41
				c0.02,0.14,0.06,0.28,0.12,0.42l-1.77-1.33l-2.7,0.89l8.03,6.15l2.73-0.97l-3.14-2.36c-0.13-0.1-0.26-0.2-0.37-0.3
				c-0.11-0.1-0.21-0.2-0.31-0.29c-0.09-0.1-0.17-0.19-0.25-0.29c-0.07-0.09-0.14-0.19-0.19-0.28c-0.05-0.09-0.09-0.18-0.13-0.27
				c-0.03-0.09-0.06-0.17-0.07-0.26c-0.02-0.08-0.02-0.17-0.02-0.25c0-0.08,0.02-0.16,0.04-0.24c0.02-0.08,0.05-0.16,0.09-0.23
				c0.04-0.08,0.09-0.15,0.14-0.22c0.05-0.07,0.12-0.14,0.19-0.21c0.07-0.07,0.15-0.13,0.24-0.2c0.09-0.06,0.18-0.13,0.28-0.19
				c0.1-0.06,0.21-0.12,0.32-0.17c0.11-0.06,0.24-0.11,0.37-0.16c0.13-0.05,0.26-0.1,0.41-0.15l0.15-0.05l-1.91-1.4
				c-0.02,0.01-0.04,0.01-0.06,0.02s-0.04,0.01-0.06,0.02c-0.02,0.01-0.04,0.01-0.06,0.02C45.51,16.95,45.49,16.96,45.47,16.97"/>
			<path d="M54.11,14.13c-0.21,0.07-0.41,0.14-0.59,0.22c-0.18,0.08-0.33,0.16-0.47,0.25c-0.14,0.09-0.26,0.18-0.36,0.28
				c-0.1,0.1-0.18,0.2-0.25,0.31c-0.07,0.11-0.12,0.23-0.15,0.35c-0.04,0.12-0.05,0.24-0.06,0.37c0,0.13,0.01,0.26,0.04,0.39
				c0.03,0.13,0.08,0.27,0.15,0.4l-1.8-1.27l-2.56,0.84l8.15,5.88l2.6-0.92l-3.19-2.26c-0.14-0.1-0.26-0.19-0.38-0.29
				c-0.12-0.09-0.22-0.19-0.32-0.28c-0.1-0.09-0.18-0.18-0.26-0.27c-0.08-0.09-0.14-0.18-0.2-0.27c-0.06-0.09-0.1-0.17-0.14-0.26
				c-0.04-0.08-0.07-0.17-0.08-0.25c-0.02-0.08-0.03-0.16-0.03-0.24c0-0.08,0.01-0.15,0.02-0.23c0.02-0.08,0.04-0.15,0.07-0.22
				c0.03-0.07,0.07-0.14,0.12-0.21c0.05-0.07,0.11-0.13,0.17-0.2c0.06-0.06,0.14-0.13,0.22-0.19c0.08-0.06,0.17-0.12,0.26-0.18
				c0.09-0.06,0.2-0.11,0.3-0.17c0.11-0.05,0.22-0.11,0.34-0.15c0.12-0.05,0.25-0.1,0.39-0.14l0.14-0.05l-1.93-1.34
				c-0.02,0.01-0.04,0.01-0.06,0.02c-0.02,0.01-0.04,0.01-0.06,0.02c-0.02,0.01-0.04,0.01-0.05,0.02
				C54.15,14.12,54.13,14.13,54.11,14.13"/>
			<path d="M59.16,12.63l-2.44,0.8l8.25,5.62l2.46-0.87L59.16,12.63 M56.31,10.64l-2.6,0.83l1.7,1.16l2.61-0.85L56.31,10.64"/>
			<path d="M73.91,14.38c-0.11,0.04-0.22,0.07-0.34,0.1c-0.12,0.03-0.23,0.06-0.35,0.08c-0.12,0.02-0.24,0.04-0.37,0.06
				c-0.13,0.02-0.25,0.03-0.38,0.04c-0.13,0.01-0.26,0.02-0.39,0.02c-0.13,0-0.26,0-0.39,0c-0.13,0-0.26-0.01-0.39-0.02
				c-0.13-0.01-0.26-0.02-0.39-0.04c-0.13-0.02-0.26-0.03-0.39-0.06c-0.13-0.02-0.25-0.05-0.38-0.08c-0.13-0.03-0.25-0.06-0.37-0.1
				c-0.12-0.04-0.25-0.07-0.37-0.11c-0.12-0.04-0.24-0.08-0.35-0.13c-0.11-0.05-0.22-0.09-0.33-0.14c-0.11-0.05-0.21-0.1-0.31-0.16
				c-0.1-0.06-0.2-0.11-0.29-0.17c-0.09-0.06-0.18-0.12-0.26-0.18c-0.08-0.06-0.15-0.12-0.22-0.18c-0.07-0.06-0.13-0.12-0.19-0.19
				c-0.06-0.06-0.11-0.12-0.15-0.19c-0.05-0.06-0.08-0.13-0.12-0.19c-0.03-0.06-0.06-0.13-0.08-0.19c-0.02-0.06-0.03-0.12-0.04-0.19
				c-0.01-0.06,0-0.12,0-0.18c0.01-0.06,0.02-0.12,0.04-0.18c0.02-0.06,0.05-0.12,0.08-0.17c0.03-0.06,0.07-0.11,0.12-0.17
				c0.05-0.06,0.1-0.11,0.16-0.16c0.06-0.05,0.12-0.1,0.2-0.15c0.07-0.05,0.15-0.1,0.24-0.14c0.09-0.05,0.18-0.09,0.28-0.13
				c0.1-0.04,0.2-0.08,0.32-0.12c0.11-0.04,0.23-0.07,0.34-0.1c0.12-0.03,0.23-0.06,0.35-0.08c0.12-0.02,0.24-0.04,0.36-0.06
				c0.12-0.02,0.25-0.03,0.37-0.04c0.13-0.01,0.25-0.01,0.38-0.02c0.13,0,0.25,0,0.38,0c0.13,0,0.25,0.01,0.38,0.02
				c0.13,0.01,0.26,0.02,0.38,0.04c0.13,0.02,0.25,0.03,0.38,0.06c0.12,0.02,0.25,0.05,0.37,0.07c0.12,0.03,0.24,0.06,0.36,0.09
				c0.12,0.03,0.24,0.07,0.36,0.11c0.12,0.04,0.23,0.08,0.35,0.12c0.11,0.04,0.22,0.09,0.33,0.14c0.11,0.05,0.21,0.1,0.31,0.15
				c0.1,0.05,0.2,0.11,0.29,0.17c0.09,0.06,0.18,0.12,0.26,0.17c0.08,0.06,0.16,0.12,0.23,0.18c0.07,0.06,0.13,0.12,0.19,0.18
				c0.06,0.06,0.11,0.12,0.16,0.18c0.05,0.06,0.09,0.13,0.13,0.19c0.04,0.06,0.06,0.12,0.09,0.19c0.02,0.06,0.04,0.12,0.05,0.19
				c0.01,0.06,0.01,0.12,0.01,0.18c0,0.06-0.01,0.12-0.03,0.18c-0.02,0.06-0.04,0.12-0.07,0.18c-0.03,0.06-0.06,0.12-0.11,0.17
				c-0.04,0.06-0.09,0.11-0.15,0.17c-0.06,0.05-0.12,0.11-0.19,0.16c-0.07,0.05-0.15,0.1-0.24,0.15c-0.09,0.05-0.18,0.09-0.28,0.14
				C74.13,14.3,74.03,14.34,73.91,14.38 M66.91,9.92c-0.19,0.06-0.37,0.13-0.54,0.2c-0.17,0.07-0.33,0.14-0.48,0.22
				c-0.15,0.08-0.29,0.16-0.42,0.24c-0.13,0.08-0.25,0.17-0.36,0.26c-0.11,0.09-0.2,0.18-0.29,0.27c-0.09,0.09-0.16,0.19-0.23,0.28
				c-0.07,0.1-0.12,0.19-0.17,0.29c-0.05,0.1-0.08,0.2-0.11,0.3c-0.02,0.1-0.04,0.21-0.04,0.31c0,0.1,0,0.21,0.02,0.32
				c0.02,0.11,0.05,0.21,0.08,0.32c0.04,0.11,0.09,0.22,0.15,0.33c0.06,0.11,0.13,0.22,0.22,0.32c0.08,0.11,0.18,0.21,0.28,0.32
				c0.1,0.1,0.22,0.21,0.35,0.31c0.13,0.1,0.27,0.2,0.41,0.3c0.15,0.1,0.3,0.19,0.47,0.28c0.16,0.09,0.33,0.17,0.51,0.26
				c0.18,0.08,0.36,0.16,0.54,0.23c0.19,0.07,0.38,0.14,0.58,0.2c0.2,0.06,0.4,0.12,0.61,0.17c0.21,0.05,0.42,0.1,0.63,0.15
				c0.21,0.04,0.43,0.08,0.64,0.11c0.22,0.03,0.44,0.06,0.66,0.08c0.22,0.02,0.45,0.04,0.67,0.05c0.22,0.01,0.45,0.02,0.67,0.02
				c0.22,0,0.45,0,0.67-0.01c0.22-0.01,0.45-0.03,0.67-0.05c0.23-0.02,0.45-0.05,0.66-0.08c0.22-0.03,0.43-0.07,0.63-0.12
				c0.21-0.04,0.41-0.09,0.61-0.15c0.2-0.06,0.39-0.12,0.58-0.19c0.19-0.07,0.38-0.14,0.55-0.22c0.17-0.08,0.33-0.15,0.48-0.24
				c0.15-0.08,0.28-0.17,0.41-0.26c0.12-0.09,0.24-0.18,0.34-0.27c0.1-0.1,0.19-0.19,0.27-0.29c0.08-0.1,0.15-0.2,0.21-0.3
				c0.06-0.1,0.11-0.2,0.14-0.3c0.04-0.1,0.06-0.2,0.08-0.31c0.01-0.1,0.02-0.21,0.01-0.31c-0.01-0.1-0.02-0.21-0.05-0.31
				c-0.03-0.1-0.07-0.21-0.11-0.32c-0.05-0.11-0.11-0.21-0.17-0.32c-0.07-0.11-0.15-0.21-0.24-0.31c-0.09-0.1-0.19-0.2-0.3-0.3
				c-0.11-0.1-0.23-0.2-0.36-0.29c-0.13-0.1-0.27-0.19-0.42-0.28c-0.15-0.09-0.31-0.18-0.47-0.26c-0.16-0.08-0.33-0.16-0.5-0.24
				c-0.17-0.08-0.35-0.15-0.54-0.21c-0.18-0.07-0.37-0.13-0.57-0.19c-0.19-0.06-0.39-0.11-0.59-0.16c-0.2-0.05-0.4-0.09-0.6-0.13
				c-0.2-0.04-0.41-0.08-0.61-0.11c-0.21-0.03-0.42-0.06-0.63-0.08c-0.21-0.02-0.43-0.04-0.64-0.05c-0.21-0.01-0.42-0.02-0.64-0.02
				c-0.21,0-0.43,0-0.64,0.01c-0.21,0.01-0.43,0.02-0.64,0.04c-0.22,0.02-0.43,0.04-0.64,0.07c-0.21,0.03-0.41,0.06-0.62,0.1
				c-0.2,0.04-0.4,0.09-0.6,0.14C67.29,9.8,67.1,9.86,66.91,9.92"/>
			<path d="M33.87,46.11c-0.14,0.06-0.28,0.11-0.43,0.15c-0.14,0.05-0.29,0.09-0.44,0.13c-0.15,0.04-0.3,0.07-0.45,0.1
				c-0.15,0.03-0.31,0.05-0.47,0.07c-0.16,0.02-0.32,0.03-0.47,0.04c-0.16,0.01-0.32,0.01-0.47,0.01c-0.16,0-0.32-0.01-0.47-0.02
				c-0.16-0.01-0.32-0.03-0.47-0.05c-0.16-0.02-0.31-0.04-0.46-0.07c-0.15-0.03-0.3-0.07-0.45-0.11c-0.15-0.04-0.3-0.09-0.44-0.14
				c-0.15-0.05-0.29-0.11-0.43-0.17c-0.14-0.06-0.28-0.13-0.41-0.2c-0.13-0.07-0.26-0.15-0.39-0.23c-0.12-0.08-0.24-0.17-0.36-0.26
				c-0.11-0.09-0.23-0.19-0.33-0.29c-0.11-0.1-0.21-0.21-0.3-0.31c-0.09-0.1-0.17-0.21-0.24-0.31c-0.07-0.1-0.13-0.2-0.18-0.31
				c-0.05-0.1-0.09-0.2-0.12-0.3c-0.03-0.1-0.05-0.2-0.07-0.3c-0.01-0.1-0.02-0.2-0.02-0.29c0-0.1,0.01-0.19,0.03-0.29
				c0.02-0.09,0.04-0.19,0.08-0.28c0.04-0.09,0.08-0.18,0.13-0.27c0.05-0.09,0.11-0.17,0.17-0.26c0.06-0.08,0.14-0.16,0.21-0.24
				c0.08-0.08,0.16-0.16,0.25-0.23c0.09-0.08,0.19-0.15,0.3-0.22c0.1-0.07,0.21-0.14,0.33-0.2c0.11-0.06,0.23-0.12,0.36-0.18
				c0.13-0.06,0.26-0.11,0.4-0.17c0.13-0.05,0.27-0.1,0.41-0.14c0.14-0.04,0.28-0.08,0.42-0.11c0.14-0.03,0.29-0.06,0.44-0.09
				c0.15-0.03,0.3-0.05,0.46-0.06c0.15-0.02,0.31-0.03,0.46-0.04c0.15-0.01,0.31-0.01,0.46-0.01c0.15,0,0.31,0.01,0.46,0.02
				c0.15,0.01,0.31,0.02,0.46,0.04c0.15,0.02,0.3,0.04,0.45,0.07c0.15,0.03,0.3,0.06,0.44,0.1c0.15,0.04,0.29,0.08,0.43,0.13
				c0.14,0.05,0.28,0.1,0.42,0.15c0.14,0.05,0.28,0.11,0.41,0.18c0.13,0.06,0.26,0.14,0.38,0.21c0.12,0.08,0.24,0.16,0.36,0.24
				c0.12,0.09,0.23,0.18,0.34,0.28c0.11,0.1,0.21,0.19,0.3,0.29c0.09,0.1,0.17,0.19,0.24,0.29c0.07,0.1,0.13,0.2,0.18,0.3
				c0.05,0.1,0.09,0.2,0.12,0.3c0.03,0.1,0.06,0.2,0.08,0.3c0.02,0.1,0.03,0.2,0.03,0.29c0,0.1,0,0.19-0.01,0.29
				c-0.01,0.1-0.03,0.19-0.06,0.28c-0.03,0.09-0.07,0.19-0.11,0.28c-0.05,0.09-0.1,0.18-0.16,0.27c-0.06,0.09-0.13,0.17-0.2,0.26
				c-0.07,0.08-0.16,0.17-0.25,0.25c-0.09,0.08-0.19,0.16-0.29,0.23c-0.1,0.07-0.21,0.14-0.32,0.21c-0.11,0.07-0.23,0.13-0.35,0.19
				C34.13,46,34,46.06,33.87,46.11 M30.63,34.13l-3.12,1.13l4.5,4.02c-0.22-0.04-0.45-0.08-0.69-0.11
				c-0.23-0.03-0.47-0.06-0.72-0.07c-0.24-0.02-0.49-0.03-0.75-0.04c-0.25-0.01-0.51-0.01-0.77-0.01c-0.26,0-0.53,0.02-0.8,0.05
				c-0.27,0.03-0.54,0.07-0.81,0.12c-0.27,0.05-0.55,0.12-0.83,0.2c-0.28,0.08-0.56,0.18-0.85,0.28c-0.21,0.08-0.41,0.16-0.61,0.25
				c-0.2,0.09-0.38,0.18-0.56,0.28c-0.18,0.1-0.35,0.2-0.52,0.31c-0.17,0.11-0.32,0.22-0.48,0.34c-0.15,0.12-0.29,0.24-0.42,0.37
				c-0.13,0.13-0.25,0.26-0.36,0.39c-0.11,0.13-0.2,0.27-0.29,0.41c-0.09,0.14-0.16,0.28-0.22,0.43c-0.06,0.15-0.11,0.3-0.14,0.45
				c-0.04,0.15-0.06,0.31-0.07,0.47c-0.01,0.16-0.01,0.32,0.01,0.48c0.02,0.16,0.04,0.33,0.09,0.49c0.04,0.17,0.1,0.33,0.17,0.5
				c0.07,0.17,0.17,0.34,0.28,0.51c0.11,0.17,0.24,0.34,0.38,0.51c0.14,0.17,0.31,0.35,0.48,0.52c0.18,0.17,0.37,0.34,0.56,0.49
				c0.19,0.16,0.4,0.3,0.61,0.44c0.21,0.14,0.43,0.26,0.65,0.38c0.22,0.12,0.46,0.22,0.7,0.32c0.24,0.1,0.48,0.19,0.72,0.27
				c0.24,0.08,0.49,0.16,0.74,0.22c0.25,0.07,0.5,0.12,0.75,0.17c0.25,0.05,0.51,0.09,0.77,0.12c0.26,0.03,0.52,0.05,0.77,0.07
				c0.26,0.02,0.51,0.02,0.77,0.02c0.26,0,0.51-0.01,0.76-0.03c0.25-0.02,0.51-0.04,0.76-0.08c0.25-0.03,0.5-0.07,0.75-0.12
				c0.24-0.05,0.48-0.1,0.72-0.16c0.23-0.06,0.46-0.13,0.69-0.2c0.22-0.07,0.44-0.15,0.66-0.24c0.29-0.12,0.55-0.24,0.8-0.37
				c0.24-0.13,0.46-0.26,0.66-0.4c0.2-0.14,0.37-0.28,0.53-0.42c0.15-0.15,0.29-0.3,0.4-0.45c0.11-0.15,0.21-0.31,0.29-0.46
				c0.08-0.15,0.16-0.31,0.21-0.46c0.06-0.15,0.11-0.31,0.14-0.46c0.03-0.15,0.06-0.31,0.07-0.46l1.52,1.36l3.2-1.3L30.63,34.13"/>
			<path d="M43.67,37.8c-0.14-0.16-0.26-0.32-0.35-0.47c-0.09-0.16-0.17-0.31-0.21-0.46c-0.05-0.15-0.07-0.3-0.08-0.45
				c0-0.15,0.02-0.29,0.06-0.44c0.04-0.15,0.11-0.29,0.2-0.42c0.09-0.13,0.2-0.25,0.34-0.37c0.13-0.12,0.29-0.22,0.47-0.32
				c0.18-0.1,0.38-0.19,0.61-0.28c0.12-0.05,0.24-0.09,0.36-0.12c0.12-0.04,0.24-0.07,0.37-0.1c0.12-0.03,0.25-0.05,0.37-0.07
				c0.12-0.02,0.25-0.03,0.37-0.04c0.12-0.01,0.25-0.02,0.37-0.02c0.12,0,0.24-0.01,0.37,0c0.12,0,0.24,0.01,0.36,0.02
				c0.12,0.01,0.24,0.02,0.36,0.04c0.12,0.01,0.24,0.03,0.36,0.06c0.12,0.02,0.23,0.05,0.35,0.08c0.12,0.03,0.23,0.06,0.34,0.1
				c0.11,0.04,0.23,0.08,0.34,0.12c0.11,0.04,0.22,0.09,0.33,0.13c0.11,0.05,0.21,0.1,0.31,0.15c0.1,0.05,0.2,0.11,0.3,0.16
				c0.1,0.06,0.19,0.12,0.29,0.18L43.67,37.8 M43.08,33.25c-0.23,0.09-0.44,0.17-0.65,0.27c-0.2,0.09-0.4,0.19-0.58,0.3
				c-0.18,0.1-0.35,0.21-0.51,0.33c-0.16,0.11-0.3,0.23-0.43,0.35c-0.13,0.12-0.25,0.24-0.36,0.37c-0.11,0.13-0.21,0.25-0.29,0.39
				c-0.09,0.13-0.16,0.26-0.23,0.4c-0.06,0.14-0.12,0.27-0.16,0.41c-0.04,0.14-0.07,0.28-0.08,0.43c-0.01,0.14-0.02,0.29-0.01,0.43
				c0.01,0.14,0.03,0.29,0.07,0.44c0.03,0.15,0.08,0.29,0.14,0.44c0.06,0.15,0.13,0.3,0.21,0.44c0.08,0.15,0.18,0.29,0.29,0.43
				c0.11,0.14,0.23,0.28,0.37,0.42c0.14,0.14,0.28,0.28,0.44,0.42c0.17,0.15,0.36,0.29,0.55,0.43c0.19,0.13,0.39,0.26,0.59,0.38
				c0.2,0.12,0.42,0.23,0.64,0.33c0.22,0.1,0.45,0.2,0.68,0.29c0.23,0.09,0.47,0.17,0.71,0.24c0.24,0.07,0.48,0.14,0.73,0.2
				c0.25,0.06,0.5,0.11,0.75,0.15c0.25,0.04,0.51,0.08,0.76,0.1c0.26,0.03,0.52,0.05,0.78,0.06c0.26,0.01,0.52,0.02,0.78,0.01
				c0.26,0,0.52-0.02,0.79-0.03c0.26-0.02,0.53-0.05,0.79-0.08c0.27-0.03,0.53-0.07,0.78-0.12c0.26-0.05,0.51-0.11,0.76-0.17
				c0.25-0.06,0.49-0.14,0.73-0.22c0.24-0.08,0.48-0.17,0.71-0.26c0.3-0.12,0.57-0.25,0.83-0.37c0.25-0.13,0.49-0.26,0.7-0.4
				c0.21-0.14,0.4-0.27,0.58-0.42c0.17-0.14,0.32-0.29,0.45-0.44c0.13-0.15,0.25-0.3,0.35-0.45c0.1-0.15,0.19-0.31,0.26-0.47
				c0.07-0.16,0.13-0.32,0.18-0.48c0.04-0.16,0.08-0.32,0.09-0.49l-2.8-0.21c-0.04,0.12-0.08,0.24-0.13,0.36
				c-0.05,0.12-0.1,0.23-0.17,0.33c-0.06,0.11-0.13,0.21-0.2,0.31c-0.07,0.1-0.15,0.19-0.24,0.28c-0.09,0.09-0.18,0.18-0.29,0.27
				c-0.11,0.09-0.23,0.17-0.36,0.25c-0.13,0.08-0.28,0.16-0.44,0.24c-0.16,0.08-0.33,0.15-0.51,0.23c-0.24,0.1-0.49,0.18-0.73,0.25
				c-0.25,0.07-0.5,0.12-0.76,0.16c-0.26,0.04-0.52,0.07-0.78,0.08c-0.26,0.01-0.53,0.01-0.8-0.01c-0.27-0.01-0.53-0.05-0.79-0.09
				c-0.26-0.05-0.52-0.11-0.77-0.18c-0.25-0.08-0.5-0.17-0.74-0.28c-0.24-0.11-0.48-0.23-0.71-0.37l9.38-3.68
				c-0.02-0.02-0.04-0.04-0.07-0.06c-0.02-0.02-0.04-0.04-0.07-0.06c-0.02-0.02-0.04-0.04-0.07-0.06c-0.02-0.02-0.04-0.04-0.07-0.06
				c-0.02-0.02-0.04-0.04-0.06-0.06c-0.02-0.02-0.04-0.04-0.06-0.06c-0.02-0.02-0.04-0.04-0.07-0.06c-0.02-0.02-0.04-0.04-0.07-0.05
				c-0.16-0.13-0.33-0.25-0.51-0.37c-0.18-0.12-0.36-0.23-0.54-0.34c-0.19-0.11-0.38-0.21-0.58-0.32c-0.2-0.1-0.4-0.2-0.62-0.29
				c-0.21-0.09-0.42-0.18-0.64-0.26c-0.21-0.08-0.43-0.15-0.65-0.22c-0.22-0.07-0.44-0.12-0.67-0.18c-0.23-0.05-0.46-0.1-0.69-0.14
				c-0.23-0.04-0.47-0.07-0.7-0.1c-0.24-0.02-0.48-0.04-0.72-0.05c-0.24-0.01-0.49-0.01-0.73-0.01c-0.25,0.01-0.5,0.02-0.75,0.04
				c-0.25,0.02-0.5,0.05-0.76,0.08c-0.25,0.04-0.5,0.09-0.76,0.14c-0.25,0.06-0.51,0.12-0.76,0.2
				C43.59,33.07,43.34,33.15,43.08,33.25"/>
			<polyline points="51.7,26.49 48.94,27.49 61.4,37.07 64.21,35.93 51.7,26.49 			"/>
			<polyline points="73.04,19.26 62.44,23.12 74.61,31.71 77.19,30.66 72.07,27.11 79.28,24.31 77.33,23.02 70.13,25.77 
				66.84,23.48 74.91,20.49 73.04,19.26 			"/>
			<path d="M90.62,23.43c-0.11,0.04-0.22,0.08-0.34,0.12c-0.12,0.04-0.24,0.07-0.36,0.1c-0.12,0.03-0.25,0.05-0.38,0.07
				c-0.13,0.02-0.26,0.04-0.39,0.05c-0.14,0.01-0.27,0.02-0.41,0.02c-0.14,0-0.27,0-0.41,0c-0.14,0-0.27-0.01-0.41-0.02
				s-0.28-0.02-0.41-0.04c-0.14-0.02-0.27-0.04-0.41-0.06c-0.14-0.02-0.27-0.05-0.41-0.08c-0.14-0.03-0.27-0.07-0.4-0.1
				c-0.13-0.04-0.27-0.08-0.4-0.12c-0.13-0.05-0.26-0.09-0.39-0.15c-0.13-0.05-0.25-0.1-0.37-0.16c-0.12-0.06-0.23-0.11-0.34-0.18
				c-0.11-0.06-0.22-0.13-0.32-0.19c-0.1-0.07-0.2-0.13-0.29-0.2c-0.09-0.07-0.18-0.14-0.26-0.2c-0.08-0.07-0.15-0.14-0.22-0.21
				c-0.07-0.07-0.13-0.14-0.18-0.21c-0.05-0.07-0.1-0.14-0.14-0.21c-0.04-0.07-0.07-0.14-0.1-0.21c-0.03-0.07-0.05-0.14-0.06-0.21
				c-0.01-0.07-0.02-0.14-0.02-0.21c0-0.07,0.01-0.14,0.02-0.2c0.01-0.07,0.03-0.13,0.06-0.2c0.03-0.06,0.06-0.13,0.1-0.19
				c0.04-0.06,0.09-0.12,0.14-0.18c0.05-0.06,0.12-0.12,0.18-0.17c0.07-0.06,0.15-0.11,0.23-0.16c0.08-0.05,0.17-0.1,0.27-0.15
				c0.1-0.05,0.2-0.09,0.32-0.14c0.11-0.04,0.23-0.08,0.34-0.12c0.12-0.03,0.24-0.06,0.36-0.09c0.12-0.03,0.25-0.05,0.37-0.07
				c0.13-0.02,0.25-0.03,0.39-0.04c0.13-0.01,0.26-0.02,0.39-0.02c0.13,0,0.26,0,0.4,0c0.13,0,0.27,0.01,0.4,0.02
				s0.27,0.02,0.4,0.04c0.13,0.02,0.27,0.04,0.4,0.06c0.13,0.02,0.27,0.05,0.4,0.08c0.13,0.03,0.26,0.06,0.39,0.1
				c0.13,0.04,0.26,0.08,0.39,0.12c0.13,0.04,0.25,0.09,0.38,0.13c0.12,0.05,0.24,0.1,0.36,0.15c0.12,0.05,0.23,0.11,0.34,0.17
				c0.11,0.06,0.22,0.12,0.32,0.18c0.1,0.06,0.2,0.13,0.29,0.19c0.09,0.07,0.18,0.13,0.26,0.2c0.08,0.07,0.16,0.14,0.23,0.2
				c0.07,0.07,0.13,0.14,0.19,0.21c0.06,0.07,0.11,0.14,0.15,0.21c0.04,0.07,0.08,0.14,0.11,0.21c0.03,0.07,0.06,0.14,0.07,0.21
				c0.02,0.07,0.03,0.14,0.03,0.21c0.01,0.07,0,0.14-0.01,0.21c-0.01,0.07-0.03,0.13-0.05,0.2c-0.02,0.07-0.05,0.13-0.09,0.2
				c-0.04,0.06-0.08,0.13-0.13,0.19c-0.05,0.06-0.11,0.12-0.18,0.18c-0.07,0.06-0.14,0.11-0.23,0.17c-0.08,0.05-0.18,0.11-0.28,0.16
				C90.84,23.34,90.74,23.39,90.62,23.43 M82.72,18.45c-0.19,0.07-0.37,0.15-0.54,0.23c-0.17,0.08-0.33,0.16-0.47,0.25
				c-0.15,0.09-0.28,0.18-0.41,0.27c-0.12,0.09-0.24,0.19-0.34,0.3c-0.1,0.1-0.19,0.21-0.27,0.31c-0.08,0.11-0.15,0.21-0.21,0.32
				c-0.06,0.11-0.1,0.22-0.14,0.33c-0.04,0.11-0.06,0.23-0.08,0.34c-0.01,0.12-0.01,0.23,0,0.35c0.01,0.12,0.03,0.24,0.06,0.36
				c0.03,0.12,0.07,0.24,0.13,0.36c0.05,0.12,0.12,0.24,0.2,0.36c0.08,0.12,0.17,0.24,0.27,0.36c0.1,0.12,0.21,0.24,0.33,0.35
				c0.12,0.12,0.26,0.23,0.4,0.35c0.15,0.11,0.3,0.23,0.47,0.34c0.17,0.11,0.34,0.22,0.53,0.32c0.18,0.1,0.37,0.2,0.56,0.29
				c0.19,0.09,0.39,0.18,0.6,0.26c0.21,0.08,0.42,0.16,0.63,0.23c0.22,0.07,0.44,0.13,0.66,0.19c0.22,0.06,0.45,0.11,0.68,0.16
				c0.23,0.05,0.46,0.09,0.69,0.13c0.23,0.04,0.46,0.07,0.7,0.09c0.24,0.03,0.47,0.04,0.71,0.06c0.24,0.01,0.47,0.02,0.7,0.02
				c0.23,0,0.47-0.01,0.7-0.02c0.23-0.01,0.47-0.03,0.7-0.05c0.23-0.03,0.46-0.06,0.68-0.1c0.22-0.04,0.44-0.08,0.65-0.13
				c0.21-0.05,0.42-0.11,0.62-0.17c0.2-0.06,0.4-0.13,0.59-0.21c0.19-0.08,0.37-0.16,0.54-0.25c0.17-0.09,0.32-0.18,0.47-0.27
				c0.14-0.09,0.27-0.19,0.39-0.29c0.12-0.1,0.23-0.21,0.32-0.31c0.1-0.11,0.18-0.22,0.25-0.33c0.07-0.11,0.13-0.22,0.18-0.33
				c0.05-0.11,0.08-0.23,0.11-0.34c0.02-0.11,0.03-0.23,0.03-0.35c0-0.12-0.01-0.23-0.03-0.35c-0.02-0.12-0.05-0.23-0.09-0.35
				c-0.04-0.12-0.1-0.24-0.16-0.35c-0.06-0.12-0.14-0.24-0.22-0.36c-0.09-0.12-0.18-0.24-0.29-0.35c-0.11-0.11-0.22-0.23-0.35-0.34
				c-0.13-0.11-0.27-0.22-0.41-0.33c-0.15-0.11-0.31-0.21-0.48-0.32c-0.17-0.1-0.35-0.2-0.53-0.3c-0.18-0.09-0.37-0.18-0.56-0.27
				c-0.19-0.08-0.39-0.16-0.59-0.24c-0.2-0.07-0.41-0.14-0.61-0.21c-0.21-0.07-0.42-0.13-0.64-0.18c-0.21-0.05-0.43-0.1-0.65-0.15
				c-0.22-0.04-0.44-0.08-0.66-0.12c-0.22-0.03-0.44-0.06-0.67-0.09c-0.22-0.02-0.44-0.04-0.67-0.05c-0.22-0.01-0.44-0.02-0.67-0.02
				c-0.22,0-0.44,0-0.67,0.01c-0.22,0.01-0.44,0.03-0.67,0.05c-0.22,0.02-0.44,0.05-0.65,0.08c-0.21,0.03-0.42,0.07-0.63,0.12
				c-0.21,0.05-0.41,0.1-0.61,0.16C83.11,18.32,82.91,18.38,82.72,18.45"/>
			<path d="M95.45,13.72c-0.18,0.07-0.34,0.14-0.49,0.22c-0.14,0.08-0.27,0.16-0.37,0.24c-0.11,0.09-0.19,0.18-0.26,0.27
				c-0.07,0.09-0.11,0.19-0.14,0.3c-0.03,0.11-0.05,0.23-0.04,0.34c0,0.12,0.02,0.24,0.06,0.36c0.04,0.12,0.09,0.25,0.16,0.37
				c0.07,0.13,0.15,0.26,0.26,0.39l-2.07-1.23l-2.18,0.82l9.45,5.68l2.19-0.89l-3.68-2.18c-0.16-0.09-0.3-0.18-0.44-0.27
				c-0.14-0.09-0.26-0.18-0.38-0.27c-0.12-0.09-0.23-0.18-0.32-0.26c-0.1-0.09-0.19-0.17-0.27-0.26c-0.08-0.08-0.15-0.17-0.21-0.25
				c-0.06-0.08-0.11-0.16-0.16-0.24c-0.04-0.08-0.08-0.16-0.1-0.23c-0.02-0.08-0.04-0.15-0.04-0.22c-0.01-0.07,0-0.14,0-0.21
				c0.01-0.07,0.03-0.14,0.05-0.2c0.03-0.07,0.06-0.13,0.1-0.19c0.04-0.06,0.09-0.12,0.15-0.18c0.06-0.06,0.12-0.12,0.2-0.17
				c0.07-0.06,0.15-0.11,0.24-0.16c0.09-0.05,0.18-0.1,0.28-0.15c0.1-0.05,0.21-0.09,0.32-0.14l0.12-0.05l-2.23-1.3
				c-0.02,0.01-0.03,0.01-0.05,0.02c-0.02,0.01-0.03,0.01-0.05,0.02c-0.02,0.01-0.03,0.01-0.05,0.02S95.46,13.71,95.45,13.72"/>
			<path d="M109.32,15.95c-0.1,0.04-0.2,0.07-0.3,0.11c-0.1,0.03-0.21,0.06-0.32,0.08c-0.11,0.02-0.22,0.04-0.34,0.06
				c-0.12,0.02-0.24,0.03-0.36,0.04c-0.12,0.01-0.25,0.01-0.37,0.02c-0.13,0-0.25,0-0.38,0c-0.13,0-0.25-0.01-0.38-0.02
				s-0.26-0.02-0.39-0.04c-0.13-0.02-0.26-0.03-0.39-0.06c-0.13-0.02-0.26-0.05-0.39-0.08c-0.13-0.03-0.26-0.06-0.39-0.09
				c-0.13-0.03-0.26-0.07-0.39-0.11c-0.13-0.04-0.26-0.08-0.38-0.13c-0.12-0.05-0.24-0.09-0.36-0.14c-0.12-0.05-0.23-0.1-0.34-0.16
				c-0.11-0.05-0.22-0.11-0.32-0.17c-0.11-0.06-0.2-0.12-0.3-0.18c-0.09-0.06-0.18-0.12-0.26-0.18c-0.08-0.06-0.16-0.12-0.23-0.19
				c-0.07-0.06-0.14-0.13-0.2-0.19c-0.06-0.06-0.11-0.13-0.16-0.19c-0.05-0.06-0.09-0.13-0.12-0.19c-0.03-0.06-0.06-0.12-0.08-0.19
				c-0.02-0.06-0.04-0.12-0.05-0.18c-0.01-0.06-0.01-0.12-0.01-0.18c0-0.06,0.02-0.12,0.03-0.17c0.02-0.06,0.04-0.11,0.07-0.17
				c0.03-0.06,0.07-0.11,0.11-0.16c0.04-0.05,0.09-0.1,0.15-0.15c0.06-0.05,0.12-0.1,0.19-0.14c0.07-0.05,0.15-0.09,0.23-0.13
				c0.09-0.04,0.18-0.08,0.28-0.12c0.1-0.04,0.2-0.07,0.3-0.1c0.1-0.03,0.21-0.06,0.32-0.08c0.11-0.02,0.22-0.04,0.34-0.06
				c0.12-0.02,0.23-0.03,0.35-0.04c0.12-0.01,0.24-0.01,0.36-0.02c0.12,0,0.25,0,0.37,0c0.12,0,0.25,0.01,0.38,0.02
				c0.13,0.01,0.25,0.02,0.38,0.04c0.13,0.02,0.25,0.03,0.38,0.06c0.13,0.02,0.25,0.05,0.38,0.07c0.13,0.03,0.25,0.06,0.38,0.09
				c0.13,0.03,0.25,0.07,0.38,0.11c0.12,0.04,0.25,0.08,0.36,0.12c0.12,0.04,0.24,0.09,0.35,0.14c0.11,0.05,0.23,0.1,0.34,0.15
				c0.11,0.05,0.22,0.11,0.32,0.17c0.1,0.06,0.2,0.12,0.3,0.17c0.09,0.06,0.18,0.12,0.27,0.18c0.08,0.06,0.16,0.12,0.24,0.18
				c0.07,0.06,0.14,0.12,0.2,0.19c0.06,0.06,0.12,0.12,0.17,0.19c0.05,0.06,0.09,0.12,0.13,0.19c0.04,0.06,0.07,0.12,0.09,0.19
				c0.02,0.06,0.04,0.12,0.06,0.18c0.01,0.06,0.02,0.12,0.02,0.18c0,0.06-0.01,0.12-0.02,0.18c-0.01,0.06-0.03,0.12-0.06,0.17
				c-0.03,0.06-0.06,0.11-0.1,0.17c-0.04,0.06-0.09,0.11-0.14,0.16c-0.06,0.05-0.12,0.1-0.19,0.15c-0.07,0.05-0.15,0.09-0.24,0.14
				C109.51,15.87,109.42,15.91,109.32,15.95 M101.37,11.49c-0.17,0.06-0.33,0.13-0.47,0.2c-0.15,0.07-0.28,0.14-0.41,0.22
				c-0.13,0.08-0.24,0.16-0.34,0.24c-0.1,0.08-0.19,0.17-0.27,0.26c-0.08,0.09-0.15,0.18-0.21,0.28c-0.06,0.09-0.11,0.19-0.15,0.28
				c-0.04,0.1-0.07,0.19-0.09,0.29c-0.02,0.1-0.03,0.2-0.02,0.3c0,0.1,0.02,0.21,0.04,0.31c0.02,0.1,0.06,0.21,0.1,0.32
				c0.05,0.11,0.1,0.21,0.17,0.32c0.07,0.11,0.14,0.22,0.23,0.32c0.09,0.11,0.18,0.22,0.29,0.33c0.11,0.11,0.23,0.21,0.36,0.32
				c0.13,0.1,0.27,0.21,0.42,0.31c0.15,0.1,0.31,0.2,0.48,0.3c0.17,0.1,0.35,0.19,0.53,0.28c0.18,0.09,0.37,0.18,0.56,0.26
				c0.19,0.08,0.39,0.16,0.59,0.23c0.2,0.07,0.41,0.14,0.62,0.2c0.21,0.06,0.42,0.12,0.63,0.17c0.21,0.05,0.43,0.1,0.64,0.14
				c0.22,0.04,0.43,0.08,0.65,0.11c0.22,0.03,0.44,0.06,0.66,0.08c0.22,0.02,0.44,0.04,0.66,0.05c0.22,0.01,0.44,0.02,0.65,0.02
				c0.22,0,0.43,0,0.65-0.01c0.21-0.01,0.43-0.03,0.64-0.05c0.21-0.02,0.42-0.05,0.62-0.08c0.2-0.03,0.39-0.07,0.58-0.12
				c0.19-0.04,0.37-0.09,0.55-0.15c0.18-0.06,0.35-0.12,0.51-0.18c0.17-0.07,0.33-0.14,0.47-0.22c0.15-0.08,0.28-0.16,0.4-0.24
				c0.12-0.08,0.23-0.17,0.33-0.26c0.1-0.09,0.18-0.18,0.26-0.28c0.07-0.09,0.14-0.19,0.19-0.29c0.05-0.1,0.09-0.2,0.12-0.3
				c0.03-0.1,0.05-0.2,0.06-0.3c0.01-0.1,0-0.21-0.01-0.31c-0.01-0.1-0.03-0.21-0.07-0.31c-0.03-0.1-0.08-0.21-0.13-0.31
				c-0.05-0.1-0.12-0.21-0.19-0.31c-0.07-0.11-0.16-0.21-0.25-0.32c-0.09-0.11-0.2-0.21-0.31-0.31c-0.11-0.1-0.23-0.2-0.37-0.3
				c-0.13-0.1-0.27-0.2-0.43-0.29c-0.15-0.1-0.31-0.19-0.48-0.28c-0.17-0.09-0.35-0.18-0.52-0.27c-0.18-0.08-0.36-0.16-0.55-0.24
				c-0.19-0.08-0.38-0.15-0.57-0.21c-0.19-0.07-0.39-0.13-0.6-0.19c-0.2-0.06-0.41-0.11-0.61-0.16c-0.21-0.05-0.41-0.09-0.62-0.14
				c-0.21-0.04-0.42-0.08-0.63-0.11c-0.21-0.03-0.42-0.06-0.63-0.08c-0.21-0.02-0.42-0.04-0.63-0.05c-0.21-0.01-0.42-0.02-0.62-0.02
				c-0.21,0-0.41,0-0.62,0.01c-0.21,0.01-0.41,0.02-0.62,0.04c-0.2,0.02-0.4,0.04-0.59,0.07c-0.19,0.03-0.38,0.06-0.57,0.1
				c-0.19,0.04-0.37,0.09-0.55,0.14C101.72,11.37,101.54,11.43,101.37,11.49"/>
			<path d="M42.02,57.79l-4.36-4.09l4.92-2.1c0.31-0.13,0.62-0.25,0.91-0.34c0.3-0.1,0.59-0.18,0.88-0.24
				c0.28-0.06,0.56-0.11,0.84-0.13c0.27-0.03,0.54-0.04,0.79-0.03c0.26,0.01,0.51,0.04,0.75,0.08c0.24,0.05,0.47,0.11,0.69,0.2
				c0.22,0.08,0.43,0.19,0.63,0.31c0.2,0.12,0.39,0.26,0.58,0.43c0.17,0.15,0.31,0.3,0.42,0.45c0.11,0.15,0.19,0.31,0.24,0.47
				c0.05,0.16,0.07,0.32,0.06,0.48c-0.01,0.16-0.06,0.33-0.13,0.49c-0.07,0.17-0.17,0.33-0.3,0.49c-0.13,0.16-0.29,0.32-0.47,0.47
				c-0.19,0.15-0.4,0.3-0.64,0.44c-0.24,0.14-0.51,0.28-0.81,0.41L42.02,57.79 M40.86,49.66l-8.61,3.6l13.13,12.62l3.5-1.65
				l-4.79-4.5l4.29-1.94l9.53,2.18l3.85-1.82l-10.3-2.31c0.13-0.1,0.26-0.21,0.38-0.31c0.12-0.1,0.23-0.21,0.33-0.32
				c0.1-0.11,0.2-0.22,0.29-0.33c0.09-0.11,0.17-0.22,0.24-0.34c0.08-0.11,0.15-0.23,0.21-0.34c0.06-0.11,0.11-0.23,0.16-0.34
				c0.04-0.11,0.08-0.23,0.11-0.35c0.03-0.12,0.05-0.23,0.05-0.35c0.01-0.12,0.01-0.23,0.01-0.35c0-0.12-0.02-0.23-0.04-0.35
				c-0.02-0.12-0.05-0.24-0.09-0.35c-0.04-0.12-0.09-0.24-0.14-0.36c-0.05-0.12-0.12-0.24-0.2-0.35c-0.08-0.12-0.16-0.24-0.26-0.36
				c-0.1-0.12-0.2-0.24-0.32-0.36c-0.12-0.12-0.25-0.24-0.38-0.36c-0.16-0.14-0.33-0.27-0.5-0.39c-0.17-0.12-0.35-0.24-0.53-0.35
				c-0.18-0.11-0.37-0.21-0.56-0.3c-0.19-0.09-0.39-0.18-0.6-0.25c-0.21-0.08-0.42-0.15-0.63-0.21c-0.21-0.06-0.43-0.12-0.65-0.16
				c-0.22-0.05-0.44-0.08-0.67-0.11c-0.23-0.03-0.46-0.05-0.69-0.06c-0.23-0.01-0.47-0.02-0.71-0.02c-0.24,0-0.48,0.01-0.73,0.03
				c-0.25,0.02-0.5,0.04-0.75,0.07c-0.25,0.03-0.51,0.07-0.77,0.12c-0.26,0.05-0.52,0.1-0.78,0.17c-0.26,0.06-0.53,0.14-0.79,0.22
				c-0.26,0.08-0.53,0.17-0.8,0.26C41.39,49.44,41.13,49.55,40.86,49.66"/>
			<path d="M69,52.3c-0.14,0.07-0.29,0.13-0.44,0.18c-0.15,0.05-0.3,0.1-0.46,0.15c-0.16,0.04-0.32,0.08-0.48,0.11
				c-0.16,0.03-0.33,0.06-0.49,0.08c-0.17,0.02-0.33,0.03-0.5,0.04c-0.17,0.01-0.33,0.01-0.5,0.01c-0.17,0-0.33-0.01-0.5-0.02
				c-0.17-0.01-0.33-0.03-0.5-0.05c-0.17-0.02-0.33-0.05-0.49-0.08c-0.16-0.03-0.33-0.07-0.49-0.11c-0.16-0.04-0.32-0.09-0.48-0.15
				c-0.16-0.05-0.31-0.11-0.47-0.18c-0.15-0.06-0.3-0.13-0.45-0.2c-0.14-0.07-0.28-0.15-0.42-0.23c-0.13-0.08-0.26-0.16-0.39-0.25
				c-0.13-0.09-0.25-0.18-0.36-0.28c-0.11-0.09-0.22-0.19-0.32-0.29c-0.1-0.1-0.19-0.19-0.27-0.29c-0.08-0.1-0.16-0.2-0.23-0.3
				c-0.07-0.1-0.13-0.2-0.18-0.3c-0.05-0.1-0.1-0.21-0.14-0.31c-0.04-0.1-0.07-0.2-0.09-0.3c-0.02-0.1-0.03-0.2-0.03-0.3
				c0-0.1,0-0.2,0.02-0.3c0.01-0.1,0.03-0.2,0.06-0.29c0.03-0.1,0.07-0.19,0.11-0.29c0.05-0.09,0.1-0.19,0.16-0.28
				c0.06-0.09,0.13-0.18,0.21-0.27c0.08-0.09,0.17-0.17,0.26-0.26c0.1-0.08,0.2-0.16,0.31-0.24c0.11-0.08,0.23-0.15,0.36-0.22
				c0.13-0.07,0.27-0.14,0.41-0.2c0.15-0.06,0.29-0.12,0.44-0.17c0.15-0.05,0.3-0.1,0.46-0.14c0.15-0.04,0.31-0.08,0.47-0.1
				c0.16-0.03,0.32-0.05,0.48-0.07c0.16-0.02,0.32-0.03,0.49-0.04c0.16-0.01,0.32-0.01,0.49-0.01c0.16,0,0.32,0.01,0.49,0.02
				c0.16,0.01,0.33,0.03,0.49,0.05c0.16,0.02,0.32,0.05,0.48,0.08c0.16,0.03,0.31,0.07,0.47,0.11c0.15,0.04,0.31,0.09,0.46,0.14
				c0.15,0.05,0.3,0.1,0.45,0.16c0.15,0.06,0.3,0.12,0.44,0.19c0.14,0.07,0.28,0.14,0.41,0.21c0.13,0.07,0.26,0.15,0.38,0.24
				c0.12,0.08,0.24,0.17,0.36,0.26c0.12,0.09,0.23,0.19,0.33,0.28c0.1,0.09,0.2,0.19,0.28,0.28c0.09,0.1,0.17,0.19,0.24,0.29
				c0.07,0.1,0.14,0.2,0.19,0.3c0.06,0.1,0.11,0.2,0.15,0.3c0.04,0.1,0.08,0.2,0.1,0.3c0.03,0.1,0.04,0.2,0.05,0.3
				c0.01,0.1,0.01,0.2,0,0.3c-0.01,0.1-0.02,0.2-0.05,0.3c-0.02,0.1-0.05,0.2-0.09,0.29c-0.04,0.1-0.09,0.19-0.14,0.28
				c-0.06,0.09-0.12,0.19-0.2,0.28c-0.08,0.09-0.16,0.18-0.25,0.27c-0.09,0.09-0.2,0.17-0.31,0.25c-0.11,0.08-0.23,0.16-0.37,0.24
				C69.29,52.16,69.15,52.23,69,52.3 M60.26,45.23c-0.25,0.11-0.49,0.22-0.71,0.34c-0.22,0.12-0.43,0.24-0.63,0.37
				c-0.2,0.13-0.38,0.26-0.55,0.4c-0.17,0.14-0.33,0.28-0.48,0.43c-0.14,0.15-0.28,0.3-0.39,0.46c-0.12,0.15-0.22,0.31-0.32,0.47
				c-0.09,0.16-0.17,0.32-0.24,0.48c-0.07,0.16-0.12,0.33-0.16,0.5c-0.04,0.17-0.07,0.34-0.08,0.51c-0.01,0.17-0.01,0.34,0,0.52
				c0.02,0.17,0.04,0.35,0.09,0.52c0.04,0.18,0.1,0.35,0.17,0.53c0.07,0.18,0.15,0.35,0.25,0.52c0.1,0.17,0.21,0.34,0.34,0.51
				c0.13,0.17,0.27,0.33,0.43,0.5c0.16,0.16,0.33,0.32,0.51,0.48c0.19,0.16,0.38,0.31,0.59,0.45c0.2,0.14,0.42,0.28,0.64,0.41
				c0.22,0.13,0.45,0.25,0.69,0.36c0.24,0.11,0.49,0.22,0.74,0.32c0.25,0.1,0.51,0.19,0.78,0.27c0.26,0.08,0.53,0.16,0.8,0.22
				c0.27,0.07,0.55,0.12,0.82,0.17c0.28,0.05,0.56,0.09,0.85,0.12c0.29,0.03,0.57,0.05,0.86,0.07c0.29,0.01,0.58,0.02,0.87,0.01
				c0.29,0,0.58-0.02,0.87-0.04c0.29-0.02,0.58-0.06,0.87-0.1c0.29-0.04,0.58-0.09,0.86-0.15c0.28-0.06,0.56-0.13,0.83-0.21
				c0.27-0.08,0.53-0.17,0.79-0.27c0.26-0.1,0.51-0.21,0.76-0.32c0.25-0.12,0.49-0.24,0.71-0.37c0.22-0.13,0.43-0.26,0.62-0.4
				c0.19-0.14,0.37-0.28,0.54-0.43c0.16-0.15,0.31-0.3,0.45-0.46c0.13-0.16,0.25-0.32,0.36-0.49c0.11-0.16,0.2-0.33,0.28-0.49
				c0.08-0.17,0.14-0.33,0.19-0.5c0.05-0.17,0.09-0.34,0.11-0.51c0.02-0.17,0.03-0.34,0.02-0.51c-0.01-0.17-0.03-0.34-0.06-0.51
				c-0.03-0.17-0.08-0.34-0.13-0.51c-0.06-0.17-0.13-0.34-0.21-0.51c-0.08-0.17-0.18-0.34-0.29-0.5c-0.11-0.16-0.23-0.33-0.37-0.48
				c-0.14-0.16-0.29-0.31-0.45-0.47c-0.16-0.15-0.34-0.3-0.53-0.45c-0.19-0.15-0.38-0.28-0.59-0.42c-0.2-0.13-0.41-0.26-0.63-0.37
				c-0.22-0.12-0.44-0.23-0.67-0.33c-0.23-0.1-0.47-0.2-0.72-0.29c-0.24-0.09-0.49-0.17-0.74-0.25c-0.25-0.07-0.5-0.14-0.76-0.2
				c-0.26-0.06-0.52-0.11-0.78-0.16c-0.26-0.04-0.53-0.08-0.79-0.11c-0.27-0.03-0.54-0.05-0.81-0.06c-0.27-0.01-0.54-0.02-0.81-0.01
				c-0.27,0-0.54,0.01-0.82,0.03c-0.27,0.02-0.55,0.05-0.82,0.08c-0.28,0.03-0.55,0.08-0.82,0.13c-0.27,0.05-0.53,0.11-0.79,0.19
				c-0.26,0.07-0.52,0.15-0.77,0.24C60.76,45.03,60.51,45.12,60.26,45.23"/>
			<path d="M83.53,35.23c-0.21,0.09-0.41,0.19-0.58,0.29c-0.18,0.1-0.34,0.2-0.48,0.31c-0.14,0.11-0.27,0.22-0.38,0.34
				c-0.11,0.12-0.2,0.24-0.27,0.36c-0.07,0.13-0.13,0.26-0.18,0.39c-0.05,0.13-0.09,0.27-0.11,0.4c-0.03,0.14-0.04,0.28-0.04,0.42
				c0,0.14,0.01,0.29,0.03,0.44c-0.21-0.06-0.43-0.12-0.65-0.17c-0.22-0.05-0.44-0.09-0.66-0.12c-0.22-0.03-0.44-0.05-0.66-0.07
				c-0.22-0.01-0.45-0.02-0.68-0.02c-0.22,0-0.45,0.02-0.67,0.04c-0.22,0.02-0.44,0.06-0.66,0.11c-0.22,0.05-0.43,0.1-0.65,0.17
				c-0.21,0.07-0.43,0.15-0.63,0.24c-0.11,0.05-0.22,0.1-0.32,0.15c-0.1,0.05-0.2,0.1-0.29,0.15c-0.09,0.05-0.17,0.11-0.25,0.16
				c-0.08,0.05-0.15,0.11-0.21,0.17c-0.07,0.06-0.13,0.11-0.19,0.17c-0.06,0.06-0.11,0.12-0.16,0.18c-0.05,0.06-0.09,0.12-0.13,0.18
				c-0.04,0.06-0.08,0.12-0.11,0.19c-0.03,0.06-0.06,0.13-0.08,0.19c-0.02,0.06-0.05,0.13-0.06,0.19c-0.02,0.06-0.03,0.13-0.04,0.19
				c-0.01,0.06-0.02,0.12-0.03,0.19c0,0.06,0,0.13,0,0.19c0,0.06,0,0.13,0,0.19c0,0.06,0.01,0.13,0.01,0.19
				c0.01,0.06,0.01,0.13,0.02,0.19l-1.56-1.16l-2.79,1.2l10.54,8l2.82-1.33l-6.04-4.5c-0.21-0.15-0.39-0.3-0.54-0.45
				c-0.15-0.15-0.28-0.3-0.38-0.44c-0.1-0.14-0.18-0.29-0.23-0.43c-0.05-0.14-0.07-0.28-0.07-0.42c0-0.14,0.03-0.26,0.08-0.39
				c0.05-0.12,0.12-0.24,0.22-0.35c0.1-0.11,0.22-0.21,0.36-0.31c0.14-0.1,0.31-0.19,0.5-0.27c0.19-0.08,0.38-0.15,0.57-0.2
				c0.19-0.05,0.39-0.09,0.59-0.12c0.2-0.02,0.4-0.04,0.6-0.03c0.2,0,0.41,0.02,0.62,0.06c0.21,0.03,0.42,0.08,0.63,0.14
				c0.21,0.06,0.42,0.14,0.62,0.23c0.21,0.09,0.41,0.2,0.62,0.31c0.21,0.12,0.41,0.25,0.62,0.4l6.14,4.43l2.68-1.26l-6.09-4.32
				c-0.21-0.15-0.4-0.3-0.56-0.45c-0.16-0.15-0.29-0.29-0.4-0.43c-0.1-0.14-0.18-0.27-0.23-0.41c-0.05-0.13-0.07-0.26-0.07-0.39
				c0-0.13,0.03-0.25,0.07-0.36c0.05-0.11,0.11-0.22,0.2-0.32c0.09-0.1,0.2-0.2,0.33-0.29c0.13-0.09,0.29-0.17,0.47-0.25
				c0.18-0.08,0.36-0.14,0.55-0.19c0.19-0.05,0.37-0.09,0.57-0.11c0.19-0.02,0.39-0.03,0.59-0.03c0.2,0,0.4,0.02,0.61,0.05
				c0.21,0.03,0.41,0.08,0.62,0.14c0.21,0.06,0.41,0.13,0.62,0.22c0.21,0.09,0.42,0.19,0.62,0.31c0.21,0.12,0.42,0.25,0.63,0.39
				l6.14,4.23l2.55-1.2l-6.91-4.68c-0.32-0.22-0.65-0.41-0.97-0.59c-0.33-0.17-0.65-0.33-0.98-0.46c-0.33-0.13-0.66-0.24-1-0.32
				c-0.33-0.09-0.67-0.15-1.01-0.2c-0.34-0.04-0.67-0.06-1-0.06c-0.33,0-0.66,0.02-0.98,0.07c-0.32,0.04-0.64,0.11-0.95,0.2
				C84.15,34.99,83.84,35.1,83.53,35.23"/>
			<path d="M103.3,36.69c-0.14,0.07-0.29,0.12-0.44,0.17c-0.15,0.05-0.3,0.09-0.45,0.12c-0.15,0.03-0.31,0.06-0.47,0.07
				c-0.16,0.02-0.32,0.03-0.49,0.03c-0.17,0-0.33-0.01-0.49-0.03c-0.16-0.02-0.31-0.05-0.46-0.1c-0.15-0.04-0.29-0.1-0.43-0.16
				c-0.14-0.06-0.27-0.14-0.4-0.22l-0.04-0.03c-0.14-0.09-0.26-0.19-0.36-0.28c-0.1-0.09-0.17-0.19-0.23-0.28
				c-0.05-0.09-0.09-0.19-0.1-0.29c-0.01-0.1,0-0.19,0.03-0.29c0.03-0.1,0.09-0.19,0.16-0.29c0.07-0.09,0.16-0.19,0.27-0.28
				c0.11-0.09,0.24-0.18,0.39-0.27c0.15-0.09,0.32-0.17,0.5-0.26c0.12-0.05,0.23-0.1,0.35-0.15c0.12-0.05,0.23-0.09,0.35-0.13
				c0.12-0.04,0.24-0.08,0.36-0.12c0.12-0.04,0.24-0.07,0.36-0.11c0.12-0.03,0.24-0.06,0.36-0.09c0.12-0.03,0.23-0.05,0.35-0.08
				c0.11-0.02,0.23-0.05,0.33-0.06c0.11-0.02,0.22-0.04,0.32-0.05l0.68,0.43c0.08,0.05,0.16,0.11,0.24,0.17
				c0.07,0.06,0.14,0.11,0.2,0.17c0.06,0.06,0.12,0.12,0.16,0.17c0.05,0.06,0.09,0.12,0.13,0.18c0.04,0.06,0.07,0.12,0.09,0.18
				c0.03,0.06,0.04,0.12,0.06,0.18c0.01,0.06,0.02,0.12,0.02,0.18c0,0.06-0.01,0.12-0.02,0.18c-0.01,0.06-0.03,0.12-0.05,0.18
				c-0.02,0.06-0.05,0.12-0.08,0.18c-0.03,0.06-0.07,0.12-0.12,0.17c-0.04,0.06-0.09,0.11-0.15,0.17c-0.06,0.06-0.12,0.11-0.18,0.16
				c-0.07,0.05-0.14,0.11-0.21,0.16c-0.08,0.05-0.16,0.1-0.25,0.15C103.49,36.6,103.39,36.65,103.3,36.69 M94.62,30.53
				c-0.21,0.09-0.41,0.18-0.6,0.27c-0.19,0.09-0.36,0.18-0.53,0.27c-0.16,0.09-0.31,0.18-0.45,0.27c-0.14,0.09-0.27,0.18-0.38,0.27
				c-0.11,0.09-0.23,0.18-0.33,0.28c-0.11,0.1-0.21,0.19-0.31,0.29c-0.1,0.1-0.19,0.2-0.28,0.3c-0.09,0.1-0.18,0.21-0.26,0.32
				l2.57,0.97c0.07-0.09,0.14-0.17,0.21-0.25c0.07-0.08,0.15-0.16,0.23-0.24c0.08-0.08,0.16-0.15,0.24-0.23
				c0.08-0.07,0.17-0.15,0.25-0.22c0.09-0.07,0.18-0.14,0.28-0.21c0.1-0.07,0.21-0.14,0.33-0.2c0.12-0.07,0.24-0.13,0.37-0.2
				c0.13-0.07,0.27-0.13,0.42-0.2c0.21-0.09,0.41-0.17,0.62-0.23c0.21-0.06,0.41-0.12,0.61-0.15c0.2-0.04,0.41-0.06,0.61-0.07
				c0.2-0.01,0.41-0.01,0.61,0c0.2,0.01,0.41,0.04,0.61,0.08c0.2,0.04,0.4,0.09,0.59,0.16c0.19,0.07,0.39,0.14,0.57,0.23
				c0.19,0.09,0.37,0.19,0.56,0.31l0.27,0.17c-0.14,0.02-0.27,0.05-0.4,0.07c-0.13,0.03-0.27,0.05-0.4,0.08
				c-0.13,0.03-0.26,0.06-0.39,0.09c-0.13,0.03-0.26,0.07-0.39,0.1c-0.13,0.04-0.26,0.08-0.4,0.12c-0.14,0.04-0.28,0.09-0.42,0.15
				c-0.14,0.05-0.29,0.11-0.44,0.17c-0.15,0.06-0.3,0.13-0.46,0.2c-0.15,0.07-0.3,0.14-0.43,0.21c-0.14,0.07-0.27,0.14-0.39,0.22
				c-0.12,0.07-0.24,0.15-0.35,0.23c-0.11,0.08-0.21,0.16-0.31,0.24c-0.1,0.08-0.18,0.16-0.26,0.25c-0.08,0.08-0.15,0.17-0.21,0.25
				c-0.06,0.09-0.11,0.17-0.16,0.26c-0.04,0.09-0.08,0.18-0.1,0.27c-0.03,0.09-0.04,0.18-0.05,0.27c-0.01,0.09,0,0.18,0.01,0.28
				c0.01,0.09,0.04,0.19,0.07,0.28c0.03,0.1,0.08,0.19,0.13,0.29c0.06,0.1,0.12,0.19,0.2,0.29c0.08,0.1,0.17,0.19,0.27,0.29
				c0.1,0.1,0.21,0.2,0.34,0.29c0.12,0.1,0.26,0.2,0.41,0.3l0.04,0.03c0.14,0.09,0.28,0.18,0.42,0.26c0.14,0.08,0.29,0.15,0.44,0.22
				c0.15,0.07,0.3,0.13,0.45,0.19c0.15,0.06,0.31,0.11,0.47,0.16c0.16,0.05,0.31,0.09,0.47,0.12c0.16,0.04,0.32,0.07,0.47,0.1
				c0.16,0.03,0.32,0.05,0.47,0.07c0.16,0.02,0.32,0.03,0.47,0.03c0.16,0.01,0.31,0.01,0.47,0.01c0.16,0,0.31-0.01,0.46-0.02
				c0.15-0.01,0.31-0.03,0.46-0.05c0.15-0.02,0.3-0.05,0.46-0.08c0.15-0.03,0.3-0.06,0.44-0.1c0.14-0.04,0.28-0.08,0.42-0.12
				c0.14-0.04,0.27-0.09,0.4-0.14c0.13-0.05,0.26-0.11,0.39-0.17c0.2-0.09,0.38-0.19,0.54-0.29c0.16-0.1,0.31-0.2,0.44-0.3
				c0.13-0.1,0.24-0.21,0.33-0.32c0.09-0.11,0.17-0.22,0.23-0.33c0.06-0.12,0.11-0.23,0.15-0.34c0.04-0.11,0.07-0.23,0.08-0.34
				c0.02-0.11,0.02-0.23,0.02-0.34c0-0.11-0.02-0.23-0.04-0.34l1.37,0.87l2.3-1.08l-6.44-4.06c-0.35-0.22-0.71-0.42-1.07-0.6
				c-0.36-0.18-0.72-0.33-1.08-0.46c-0.36-0.13-0.73-0.24-1.09-0.33c-0.37-0.09-0.74-0.15-1.11-0.19c-0.37-0.04-0.75-0.06-1.12-0.05
				c-0.38,0.01-0.75,0.04-1.13,0.1c-0.38,0.06-0.76,0.15-1.14,0.26C95.39,30.22,95.01,30.36,94.62,30.53"/>
			<path d="M107,25.15c-0.09,0.04-0.18,0.08-0.26,0.12c-0.08,0.04-0.16,0.08-0.23,0.13c-0.07,0.04-0.14,0.09-0.2,0.13
				c-0.06,0.05-0.11,0.09-0.16,0.14c-0.05,0.05-0.09,0.09-0.14,0.14c-0.04,0.05-0.08,0.1-0.11,0.15c-0.03,0.05-0.06,0.1-0.09,0.15
				c-0.03,0.05-0.05,0.1-0.07,0.15c-0.02,0.05-0.03,0.11-0.05,0.16c-0.01,0.05-0.02,0.11-0.03,0.16c-0.01,0.05-0.01,0.11-0.01,0.16
				c0,0.05,0,0.11,0.01,0.16c0.01,0.05,0.02,0.11,0.03,0.16c0.01,0.05,0.03,0.11,0.04,0.16c0.02,0.05,0.03,0.11,0.05,0.16
				c0.02,0.06,0.04,0.11,0.06,0.17l-1.62-0.99l-2.25,0.97l10.7,6.62l2.25-1.06l-6.12-3.74c-0.21-0.13-0.39-0.25-0.55-0.38
				c-0.16-0.12-0.29-0.25-0.4-0.37c-0.11-0.12-0.2-0.24-0.26-0.36c-0.06-0.12-0.1-0.23-0.11-0.34c-0.01-0.11-0.01-0.22,0.02-0.32
				c0.03-0.1,0.08-0.2,0.15-0.29c0.07-0.09,0.17-0.18,0.28-0.26c0.12-0.08,0.25-0.16,0.41-0.22c0.16-0.07,0.33-0.13,0.5-0.17
				c0.17-0.05,0.34-0.08,0.52-0.1c0.18-0.02,0.36-0.03,0.55-0.03c0.19,0,0.38,0.02,0.58,0.05c0.2,0.03,0.4,0.07,0.6,0.12
				c0.2,0.05,0.4,0.11,0.6,0.19c0.2,0.08,0.41,0.16,0.61,0.26c0.21,0.1,0.41,0.21,0.62,0.34l6.16,3.66l2.16-1.02l-6.89-4.05
				c-0.31-0.18-0.62-0.35-0.93-0.49c-0.31-0.15-0.63-0.28-0.94-0.39c-0.32-0.11-0.63-0.21-0.95-0.28c-0.32-0.08-0.64-0.14-0.97-0.18
				c-0.32-0.04-0.64-0.07-0.95-0.07c-0.31,0-0.61,0.01-0.91,0.05c-0.3,0.04-0.58,0.09-0.86,0.17
				C107.54,24.94,107.27,25.03,107,25.15"/>
			<path d="M126.1,25.81c-0.1,0.04-0.2,0.09-0.3,0.12c-0.1,0.04-0.21,0.07-0.33,0.1c-0.11,0.03-0.23,0.05-0.35,0.07
				c-0.12,0.02-0.25,0.04-0.37,0.05c-0.13,0.01-0.26,0.02-0.39,0.02c-0.13,0-0.26,0.01-0.4,0c-0.13,0-0.27-0.01-0.41-0.02
				c-0.14-0.01-0.27-0.02-0.41-0.04s-0.28-0.04-0.42-0.06c-0.14-0.02-0.28-0.05-0.42-0.08c-0.14-0.03-0.28-0.07-0.42-0.11
				c-0.14-0.04-0.28-0.08-0.42-0.13c-0.14-0.05-0.28-0.09-0.41-0.14c-0.13-0.05-0.27-0.11-0.4-0.16c-0.13-0.06-0.26-0.12-0.38-0.18
				c-0.12-0.06-0.25-0.13-0.36-0.2c-0.12-0.07-0.23-0.13-0.33-0.2c-0.11-0.07-0.21-0.14-0.3-0.21c-0.09-0.07-0.18-0.14-0.26-0.21
				c-0.08-0.07-0.16-0.14-0.23-0.21c-0.07-0.07-0.14-0.14-0.19-0.22c-0.06-0.07-0.11-0.14-0.15-0.21c-0.04-0.07-0.08-0.14-0.11-0.21
				c-0.03-0.07-0.05-0.14-0.07-0.21c-0.02-0.07-0.03-0.14-0.03-0.2c0-0.07,0-0.13,0.01-0.2c0.01-0.07,0.03-0.13,0.05-0.19
				c0.02-0.06,0.05-0.13,0.09-0.19c0.04-0.06,0.08-0.12,0.14-0.18c0.05-0.06,0.11-0.11,0.18-0.16c0.07-0.05,0.15-0.1,0.23-0.15
				c0.08-0.05,0.18-0.09,0.28-0.14c0.1-0.04,0.2-0.08,0.31-0.12c0.11-0.04,0.22-0.07,0.33-0.09c0.11-0.03,0.23-0.05,0.35-0.07
				c0.12-0.02,0.24-0.03,0.37-0.04c0.12-0.01,0.25-0.02,0.38-0.02c0.13,0,0.26,0,0.39,0c0.13,0,0.26,0.01,0.4,0.02
				c0.13,0.01,0.27,0.03,0.41,0.04c0.14,0.02,0.27,0.04,0.41,0.06c0.14,0.02,0.27,0.05,0.41,0.08c0.14,0.03,0.27,0.06,0.41,0.1
				c0.14,0.04,0.27,0.08,0.41,0.12c0.14,0.04,0.27,0.09,0.4,0.14c0.13,0.05,0.26,0.1,0.39,0.15c0.13,0.05,0.25,0.11,0.37,0.17
				c0.12,0.06,0.24,0.12,0.36,0.19c0.12,0.07,0.23,0.13,0.34,0.2c0.11,0.07,0.21,0.13,0.3,0.2c0.1,0.07,0.19,0.14,0.27,0.21
				c0.08,0.07,0.16,0.14,0.24,0.21c0.07,0.07,0.14,0.14,0.2,0.21c0.06,0.07,0.12,0.14,0.16,0.21c0.05,0.07,0.09,0.14,0.12,0.21
				c0.03,0.07,0.06,0.14,0.08,0.21c0.02,0.07,0.04,0.14,0.04,0.21c0.01,0.07,0.01,0.14,0,0.2c-0.01,0.07-0.02,0.13-0.04,0.2
				c-0.02,0.06-0.05,0.13-0.08,0.19c-0.03,0.06-0.08,0.12-0.13,0.18c-0.05,0.06-0.11,0.12-0.18,0.17c-0.07,0.06-0.14,0.11-0.23,0.16
				C126.3,25.72,126.21,25.77,126.1,25.81 M117.16,20.78c-0.17,0.07-0.33,0.15-0.47,0.23c-0.15,0.08-0.28,0.16-0.4,0.25
				c-0.12,0.09-0.23,0.18-0.33,0.27c-0.1,0.1-0.18,0.19-0.26,0.3c-0.07,0.1-0.14,0.21-0.19,0.32c-0.05,0.11-0.09,0.22-0.12,0.33
				c-0.03,0.11-0.05,0.22-0.05,0.34c-0.01,0.11,0,0.23,0.01,0.35c0.02,0.12,0.04,0.23,0.08,0.35c0.04,0.12,0.09,0.24,0.15,0.36
				c0.06,0.12,0.13,0.24,0.22,0.37c0.08,0.12,0.18,0.25,0.29,0.37c0.11,0.12,0.22,0.25,0.35,0.37c0.13,0.12,0.27,0.24,0.41,0.36
				c0.15,0.12,0.31,0.23,0.48,0.35c0.17,0.11,0.35,0.23,0.54,0.34c0.19,0.11,0.39,0.22,0.59,0.32c0.2,0.1,0.41,0.2,0.62,0.29
				c0.21,0.09,0.43,0.18,0.65,0.26c0.22,0.08,0.45,0.16,0.68,0.23c0.23,0.07,0.46,0.14,0.69,0.19c0.23,0.06,0.46,0.11,0.7,0.16
				c0.23,0.05,0.47,0.09,0.7,0.13c0.23,0.04,0.47,0.07,0.71,0.09c0.24,0.02,0.47,0.04,0.7,0.05c0.23,0.01,0.46,0.02,0.69,0.02
				c0.23,0,0.46-0.01,0.68-0.02c0.22-0.01,0.45-0.03,0.67-0.06c0.22-0.03,0.43-0.06,0.64-0.1c0.21-0.04,0.41-0.08,0.6-0.14
				c0.19-0.05,0.38-0.11,0.56-0.18c0.18-0.07,0.35-0.14,0.52-0.22c0.17-0.08,0.33-0.16,0.47-0.25c0.14-0.09,0.27-0.18,0.39-0.27
				c0.12-0.09,0.22-0.19,0.31-0.29c0.09-0.1,0.17-0.21,0.23-0.32c0.06-0.11,0.12-0.22,0.16-0.33c0.04-0.11,0.07-0.23,0.09-0.34
				c0.02-0.11,0.03-0.23,0.02-0.35c0-0.12-0.02-0.23-0.05-0.35c-0.03-0.12-0.07-0.24-0.12-0.36c-0.05-0.12-0.11-0.24-0.18-0.36
				c-0.07-0.12-0.15-0.24-0.24-0.36c-0.09-0.12-0.19-0.24-0.3-0.36c-0.11-0.12-0.24-0.24-0.37-0.35c-0.13-0.12-0.28-0.23-0.43-0.34
				c-0.15-0.11-0.31-0.22-0.49-0.33c-0.17-0.11-0.35-0.22-0.55-0.32c-0.19-0.1-0.38-0.2-0.58-0.3c-0.2-0.09-0.4-0.18-0.61-0.27
				c-0.21-0.08-0.42-0.17-0.63-0.24c-0.22-0.08-0.43-0.15-0.66-0.21c-0.22-0.07-0.44-0.13-0.66-0.18c-0.22-0.06-0.44-0.11-0.67-0.15
				c-0.22-0.04-0.45-0.08-0.67-0.12c-0.22-0.03-0.45-0.06-0.67-0.09c-0.23-0.02-0.45-0.04-0.67-0.05c-0.22-0.01-0.44-0.02-0.66-0.02
				c-0.22,0-0.43,0-0.65,0.02c-0.21,0.01-0.43,0.03-0.63,0.05c-0.21,0.02-0.42,0.05-0.62,0.08c-0.2,0.03-0.4,0.08-0.59,0.12
				c-0.19,0.05-0.37,0.1-0.55,0.16C117.5,20.64,117.33,20.71,117.16,20.78"/>
		</g>
	</g>
</g>
<polyline class="st3" points="2.43,24.05 72.05,2.48 85.4,10.28 104.48,3.21 136.35,22.27 "/>
</svg>
