<svg width="27" height="27" viewBox="0 0 27 27" fill="none" xmlns="http://www.w3.org/2000/svg">
<path d="M26.0938 23.9141L18.5811 16.4002C19.7918 14.7364 20.4431 12.7313 20.4411 10.6737C20.4411 5.28803 16.0593 0.90625 10.6737 0.90625C5.28803 0.90625 0.90625 5.28803 0.90625 10.6737C0.90625 16.0593 5.28803 20.4411 10.6737 20.4411C12.7313 20.4431 14.7364 19.7918 16.4002 18.5811L23.9141 26.0938L26.0938 23.9141ZM10.6737 17.3562C9.35182 17.3563 8.05961 16.9645 6.96048 16.2302C5.86134 15.4959 5.00465 14.4521 4.49874 13.2309C3.99284 12.0097 3.86044 10.6659 4.11829 9.36939C4.37614 8.07293 5.01266 6.88205 5.94736 5.94736C6.88205 5.01266 8.07293 4.37614 9.36939 4.11829C10.6659 3.86044 12.0097 3.99284 13.2309 4.49874C14.4521 5.00465 15.4959 5.86134 16.2302 6.96048C16.9645 8.05961 17.3563 9.35182 17.3562 10.6737C17.3541 12.4454 16.6494 14.1439 15.3967 15.3967C14.1439 16.6494 12.4454 17.3541 10.6737 17.3562Z" fill="black"/>
</svg>
